<?xml version="1.0" standalone="no"?>
<!DOCTYPE svg PUBLIC "-//W3C//DTD SVG 20010904//EN"
 "http://www.w3.org/TR/2001/REC-SVG-20010904/DTD/svg10.dtd">
<svg version="1.0" xmlns="http://www.w3.org/2000/svg"
 width="512.000000pt" height="512.000000pt" viewBox="0 0 512.000000 512.000000"
 preserveAspectRatio="xMidYMid meet">
<metadata>
Created by potrace 1.14, written by Peter Selinger 2001-2017
</metadata>
<g transform="translate(0.000000,512.000000) scale(0.100000,-0.100000)"
fill="#000000" stroke="none">
<path d="M755 5089 c-33 -17 -87 -47 -120 -67 -148 -88 -162 -101 -168 -163
-4 -41 -2 -46 243 -469 101 -173 191 -330 201 -347 10 -18 69 -119 130 -225
178 -308 164 -277 142 -294 -10 -7 -21 -14 -25 -14 -9 0 -115 -85 -166 -134
-54 -51 -66 -78 -52 -121 10 -30 8 -38 -30 -93 -34 -49 -45 -58 -64 -55 -13 3
-34 0 -46 -7 -34 -18 -94 -167 -126 -315 -13 -64 -13 -301 2 -375 8 -41 14
-76 14 -77 0 -2 -7 -3 -15 -3 -27 0 -101 -40 -134 -72 -56 -55 -76 -106 -73
-195 3 -131 111 -236 249 -242 32 -1 59 -3 60 -5 3 -2 14 -56 29 -136 3 -14 7
-33 10 -42 3 -10 7 -30 10 -45 6 -36 80 -399 99 -483 12 -54 25 -115 30 -140
12 -58 18 -90 21 -110 3 -14 16 -77 29 -140 13 -63 27 -126 29 -140 3 -14 10
-47 16 -75 6 -27 13 -66 16 -85 3 -19 9 -48 14 -65 5 -16 12 -46 15 -65 23
-141 73 -215 180 -266 39 -18 80 -19 1290 -19 l1250 0 42 23 c23 12 59 39 79
59 55 54 68 91 109 293 2 8 11 51 20 95 9 44 19 90 21 103 2 12 6 32 8 45 2
12 9 42 15 67 5 25 12 56 14 70 3 14 37 179 76 366 38 188 72 352 75 365 3 13
7 35 10 49 3 14 18 82 32 151 l27 127 66 4 c104 8 171 52 218 143 48 93 28
215 -46 291 -32 33 -108 74 -136 74 -16 0 -15 28 5 107 4 17 7 98 5 180 -2
172 -28 288 -95 431 -130 276 -369 490 -650 581 l-65 21 0 148 c0 81 -4 165
-8 187 -65 340 -266 615 -569 778 -77 41 -201 87 -273 101 -16 4 -41 9 -55 12
-14 4 -83 8 -155 10 -139 3 -237 -10 -355 -48 -326 -105 -592 -363 -701 -680
l-23 -67 -16 27 c-9 15 -51 88 -94 162 -42 74 -81 142 -86 150 -6 8 -48 83
-95 165 -47 83 -89 157 -95 165 -10 16 -70 122 -101 177 -10 17 -29 50 -43 72
-15 22 -26 43 -26 46 0 11 -35 42 -55 49 -51 20 -81 17 -140 -15z"/>
</g>
</svg>
